<svg width="72" height="22" viewBox="0 0 72 22" fill="none" xmlns="http://www.w3.org/2000/svg">
<path d="M31.2842 1.41707V12.6317C31.2842 17.2659 33.9115 20 38.4982 20C42.3279 20 45.5342 16.9415 45.5342 13.0024C45.5342 9.1561 42.7287 5.72683 38.81 5.72683C37.5186 5.72683 36.0936 6.09756 35.3811 7.07073H35.3365V1L31.2842 1.41707ZM34.7576 12.8634C34.7576 11.0561 36.1826 9.48049 38.142 9.48049C40.0568 9.48049 41.5264 11.0561 41.5264 12.8634C41.5264 14.6707 40.1014 16.2463 38.142 16.2463C36.1826 16.2 34.7576 14.6707 34.7576 12.8634Z" fill="#182C52"/>
<path fill-rule="evenodd" clip-rule="evenodd" d="M58.1013 19.7276H61.367V12.8769C61.4577 10.9515 60.7773 9.33957 59.4166 7.95151C58.1013 6.51868 56.4231 5.80226 54.4728 5.75749C52.4771 5.66793 50.7082 6.38435 49.2568 7.77241C47.8507 9.20524 47.125 10.9067 47.125 12.8769C47.125 14.8023 47.8053 16.459 49.1207 17.8023C50.436 19.1903 52.1142 19.9067 54.0192 19.9963C55.516 20.0411 56.922 19.6828 58.1013 18.8321V19.7276ZM56.8767 15.653C57.6931 14.8023 58.0559 13.862 58.0559 12.7426C58.0559 11.6679 57.6477 10.8172 56.922 10.0112C56.1963 9.25002 55.3345 8.89181 54.3367 8.89181C53.2481 8.89181 52.3864 9.25002 51.6153 10.0112C50.8442 10.7724 50.4814 11.6232 50.436 12.6978C50.436 13.7724 50.7535 14.6679 51.4792 15.4739C52.2049 16.2799 53.0667 16.6381 54.1099 16.7276C55.1985 16.8172 56.1056 16.459 56.8767 15.653Z" fill="#182C52"/>
<path fill-rule="evenodd" clip-rule="evenodd" d="M57.1013 19.4143C57.4493 19.2548 57.7835 19.0613 58.1013 18.8321V19.7276H61.367V12.8769C61.4577 10.9515 60.7773 9.33957 59.4166 7.95151C58.1013 6.51868 56.4231 5.80226 54.4728 5.75749C52.4771 5.66793 50.7082 6.38435 49.2568 7.77241C47.8507 9.20524 47.125 10.9067 47.125 12.8769C47.125 14.8023 47.8053 16.459 49.1207 17.8023C50.436 19.1903 52.1142 19.9067 54.0192 19.9963C55.1127 20.029 56.1577 19.8466 57.1013 19.4143ZM54.0577 18.997C55.3702 19.0347 56.5472 18.7202 57.5162 18.0211L59.1013 16.8776V18.7276H60.367V12.8533L60.3681 12.8298C60.4445 11.2084 59.8877 9.86052 58.7025 8.65155L58.6911 8.63984L58.68 8.62777C57.5597 7.40742 56.145 6.79614 54.4498 6.75722L54.4389 6.75697L54.4279 6.75648C52.7296 6.68027 51.2256 7.27827 49.9594 8.48417C48.7345 9.73734 48.125 11.1873 48.125 12.8769C48.125 14.5425 48.7042 15.9476 49.8352 17.1026L49.8409 17.1085L49.8466 17.1144C50.9697 18.2996 52.3953 18.917 54.0577 18.997ZM56.922 10.0112C57.6477 10.8172 58.0559 11.6679 58.0559 12.7426C58.0559 13.862 57.6931 14.8023 56.8767 15.653C56.1056 16.459 55.1985 16.8172 54.1099 16.7276C53.0667 16.6381 52.2049 16.2799 51.4792 15.4739C50.7535 14.6679 50.436 13.7724 50.436 12.6978C50.4814 11.6232 50.8442 10.7724 51.6153 10.0112C52.3864 9.25002 53.2481 8.89181 54.3367 8.89181C55.3345 8.89181 56.1963 9.25002 56.922 10.0112ZM57.6556 9.33149L57.6652 9.34208C58.516 10.287 59.0559 11.3667 59.0559 12.7426C59.0559 14.1179 58.5948 15.3069 57.5982 16.3454C56.6283 17.3586 55.4298 17.8396 54.0279 17.7243L54.0244 17.724C52.7718 17.6164 51.6586 17.1676 50.7361 16.143C49.8341 15.1413 49.436 14.0027 49.436 12.6978V12.6767L49.4369 12.6556C49.4926 11.3369 49.9558 10.2443 50.9128 9.29957C51.8693 8.35529 52.9828 7.89181 54.3367 7.89181C55.6085 7.89181 56.7317 8.36239 57.6458 9.32118L57.6556 9.33149Z" fill="#182C52"/>
<path d="M64.2955 9.76923V14.7476C64.2955 18.3101 66.2046 20 69.841 20C70.0683 20 70.2955 19.9543 70.4774 19.9543L71.6592 15.9808C71.4774 16.0721 70.9319 16.1178 70.5683 16.1178C69.3865 16.1178 68.3865 15.7524 68.3865 14.4279V9.76923H70.7501V6.38942H68.3865V2.1875L64.2955 3.74038V6.38942H63.0228L62.1592 9.76923H64.2955Z" fill="#182C52"/>
<path d="M19.3391 8.65632C20.7262 10.0164 20.7262 12.1699 19.3391 13.5301L13.6172 18.9705C12.2879 20.274 10.1494 20.274 8.76225 18.9705L3.04035 13.5301C1.65322 12.1699 1.65322 10.0164 3.04035 8.65632L8.76225 3.21586C10.0916 1.91242 12.2301 1.91242 13.6172 3.21586L19.3391 8.65632Z" stroke="#3C76E6" stroke-width="3"/>
</svg>
